<?xml version="1.0" encoding="utf-8"?>
<!-- Generator: Adobe Illustrator 17.1.0, SVG Export Plug-In . SVG Version: 6.00 Build 0)  -->
<!DOCTYPE svg PUBLIC "-//W3C//DTD SVG 1.1//EN" "http://www.w3.org/Graphics/SVG/1.1/DTD/svg11.dtd">
<svg version="1.1" id="Layer_1" xmlns="http://www.w3.org/2000/svg" xmlns:xlink="http://www.w3.org/1999/xlink" x="0px" y="0px"
	 viewBox="0 0 617 277" enable-background="new 0 0 617 277" xml:space="preserve">
<g>
	<g>
		<path fill="#3166A5" d="M145.8,190.2c-3.3,0.1-6.7-0.1-9.9-0.8c-3.3-0.7-6.4-1.7-9.5-3.1c-3.1-1.3-6-3-8.8-4.8
			c-2.8-1.8-5.5-3.8-8-6.1c-5-4.6-8.9-10.3-11.5-16.6c-1.3-3.1-2.4-6.4-3.2-9.6c-0.2-0.8-0.4-1.6-0.6-2.5l-0.3-1.2l-0.2-1.3
			c-0.1-0.8-0.2-1.6-0.3-2.5c-0.1-0.9-0.2-1.7-0.2-2.6c-0.4-6.8,0.6-13.8,3-20.3c2.4-6.5,6-12.5,10.5-17.7c4.5-5.3,10-9.8,16.3-13
			c6.2-3.2,13.2-5.1,20-5.8c0.9-0.1,1.8-0.2,2.7-0.2c0.9,0,1.8-0.1,2.6-0.1l2.6,0l2.6,0.2c3.5,0.3,7,1,10.5,2
			c6.8,2,13.2,5.5,18.8,9.7c5.7,4.3,10.7,9.6,14.4,15.9c1.8,3.1,3.4,6.4,4.5,9.9c0.6,1.7,1,3.5,1.4,5.2c0.2,0.9,0.4,1.8,0.5,2.6
			l0.4,2.8l0.2,2.4l0.2,2.8c0.1,1.8,0.1,3.6-0.1,5.4c-0.2,3.6-0.8,7.2-1.8,10.6c-1,3.5-2.3,6.8-3.9,10c-1.6,3.2-3.6,6.1-5.7,8.9
			l-0.8,1l-0.2,0.3l-0.2,0.2l-0.4,0.5c-0.5,0.6-1,1.2-1.7,1.9c-1.2,1.3-2.4,2.5-3.7,3.7c-2.6,2.4-5.3,4.5-8.3,6.3
			c-3,1.8-6.2,3.2-9.5,4.3c-3.3,1-6.7,1.6-10.1,1.8l1.4-1.9l0,4.1c0,1.4,0,2.7-0.1,4.1l-1,0.1c-0.4-1.3-0.8-2.6-1.2-3.9l-1.1-3.9
			l-0.4-1.5l1.9-0.4c6.2-1.3,11.9-4,16.7-7.8c2.4-1.9,4.6-4,6.7-6.3c1-1.2,2-2.4,2.9-3.5c0.5-0.6,0.9-1.3,1.4-1.9l0.4-0.5l0.2-0.2
			c0.1-0.1,0,0,0,0l0-0.1l0.1-0.1l0.6-1c3.3-5.1,5.8-10.7,7-16.4c0.6-2.9,1-5.8,1-8.8c0-1.5,0-3-0.1-4.4l-0.2-2.1l-0.3-2.4l-0.4-2.1
			c-0.1-0.7-0.3-1.4-0.5-2.2c-0.3-1.4-0.7-2.9-1.2-4.2c-0.9-2.8-2.1-5.5-3.5-8c-2.8-5.1-6.7-9.7-11.3-13.5c-4.7-3.9-9.8-7.1-15.5-9
			c-2.8-1-5.7-1.6-8.7-2l-2.2-0.2l-2.3-0.1c-0.8,0-1.5,0-2.3,0c-0.8,0-1.5,0.1-2.2,0.1c-0.7,0-1.6,0.1-2.4,0.2l-0.6,0.1l-0.5,0.1
			l-1.1,0.2c-0.8,0.1-1.5,0.3-2.3,0.4c-0.8,0.1-1.5,0.3-2.2,0.5c-3,0.7-5.8,1.7-8.6,3c-5.5,2.6-10.4,6.3-14.6,10.8
			c-4.2,4.6-7.7,9.8-10,15.5c-2.4,5.7-3.5,11.9-3.5,18.1c0,0.8,0,1.5,0.1,2.3c0,0.7,0.1,1.6,0.2,2.4l0.1,1.1l0.2,1.2
			c0.1,0.8,0.2,1.6,0.4,2.3c0.6,3.1,1.4,6.2,2.5,9.1c2.2,5.9,5.6,11.4,10,15.9c2.2,2.2,4.7,4.3,7.3,6.2c2.6,1.9,5.4,3.6,8.2,5
			c2.9,1.4,5.9,2.6,9,3.5c3.1,0.8,6.3,1.3,9.6,1.3L145.8,190.2z"/>
	</g>
</g>
<g>
	<defs>
		<filter id="Adobe_OpacityMaskFilter" filterUnits="userSpaceOnUse" x="330.5" y="115.4" width="108" height="125.3">
			<feFlood  style="flood-color:white;flood-opacity:1" result="back"/>
			<feBlend  in="SourceGraphic" in2="back" mode="normal"/>
		</filter>
	</defs>
	<mask maskUnits="userSpaceOnUse" x="330.5" y="115.4" width="108" height="125.3" id="SVGID_1_">
		<g filter="url(#Adobe_OpacityMaskFilter)">
			
				<image overflow="visible" width="467" height="539" xlink:href="6F5F9E607D49A7CF.jpg"  transform="matrix(0.24 0 0 0.24 328.4796 113.416)">
			</image>
		</g>
	</mask>
	<g mask="url(#SVGID_1_)">
		<g opacity="0.5">
			
				<image overflow="visible" width="450" height="522" xlink:href="6F5F9E607D49A7CD.png"  transform="matrix(0.24 0 0 0.24 330.4796 115.416)">
			</image>
		</g>
		<g>
			<g>
				<g>
					<g>
						<g>
							<path fill="#EC2127" d="M337.7,135.8c-0.5,0.5,0.7,0.8-0.2,0.6C337.4,135.9,337.4,135.5,337.7,135.8z"/>
							<path fill="#EC2127" d="M423.3,227.2c-3.4,1.4-4.1-2.7-7.1-2.4c-0.3,0,1-1.4,0.2-1.4c-3.2,0.8-5.4-2.4-6.7-5.4l0.4-0.3
								c-0.3-0.6-1.6,0.4-2-0.1c0.2-0.3,0.4-0.3,0.5-0.7c-0.6,0.7-1.1-0.2-1.7,0.3c0-0.4,0.4-1,0.4-1.6l-0.8,0.7
								c-2.1,1.7-1.7-1.3-3.4-0.9c0.2-0.2,0.4-0.3,0.4-0.5c-2.5,0.2-4.3-1.3-6.5-2c0.3-0.3,0.7-0.8,0.8-1.2c-0.7,0.9-1.4,0.8-2,0.6
								c0.4-1.1-1.4,0.4-1.6-0.6l0.2-0.2c-1.1,0.8-0.2-1-1.4,0l0.2-0.9c-1.1,1.3-0.2-1.1-0.9-0.6l-0.2,0.3c-0.5,0.1-0.3-0.7-0.7-0.6
								l0.1-0.2c-0.9-0.1-0.9-1.1-1.5-0.1c0.3-1,0.9,0.1,1.4-1.5c-3.1-0.4-5.3-2.2-7.7-3.7c0-0.6-0.1-0.9,0.1-1.3
								c-0.4,0.1-1-0.4-1.6,0c0.1,0,0.2-0.7,0.1-0.8c-0.2-0.7-1.2,0.9-1.4,0.1c0.4-0.2,0.7-0.5,0.9-0.9c-0.9,0.6-1.4,0.1-2,0.1
								c0.2-0.1,0.4-0.2,0.6-0.5c-1.1,0.6-0.8-0.8-1.7-0.5l0.6-0.5c-0.3-1.2-1.1,1.2-1.4,0.3c0.3-0.1,0.4-0.4,0.6-0.6
								c-1.3,0.7-2-0.3-2.9-0.3c0.1-0.1,0.2-0.2,0.2-0.2c-0.4-0.1-0.7-0.4-1-0.6c-0.2-0.1-0.3-0.2-0.5-0.3c-0.2-0.1-0.4-0.1-0.7-0.2
								c-0.1-0.5,1.1-1.4,0.3-1.7c-0.8,1.2-1.5-0.2-2,1.4c-0.4-0.6-1.1-1.6-1.7-1.4c0.5-0.3,0.6-1.7,1.2-1.6l0.1-1
								c0.4-0.5,0.3,0.4,0.6-0.3c-0.3-0.1-1.3,0-1.4-0.3c-0.9,0.5-2.2,1.8-3,1.5c0.6-0.3,0.6-1.5,1-1.6l-2.5,1.9
								c-0.3-0.1,0.5-1.1,0-0.9c-0.2,0.4-0.5,0.5-0.7,0.7c0-0.2-1.3-0.3-0.6-1.6c0.2-0.6,0.6,0,0.6-0.6c-0.5-0.3-0.8,0.2-1.2-0.1
								l0.1-0.2c-0.2-0.4-1.2,0-1.3,0.9c0.2,0.2,0.4-0.8,0.5-0.2c-0.7,0.6-1.4,0.4-1.8,0.1c0.3-0.1,0.5-0.4,0.8-0.7
								c-1.3,0.5-2.2,0.4-3.2,0.2c-0.4,0.6,1-0.8,0.9-0.4c-0.2-0.7-0.8-0.8-1.5-0.9c-0.6-0.2-1.2-0.4-1.1-1.2c0.2,0-0.6,0.8-0.5,0.6
								c-0.4-0.4,0.3-1.2-0.2-1.2c0.4-0.4-0.5-0.2-0.9-0.4c-0.5,0.1,0.1-0.3,0.4-0.1c-0.2,0-0.5-0.1-0.8-0.2c-0.3-0.1-0.7-0.4-1-0.6
								c-0.7-0.5-1.2-1.4-1.2-2.2c-0.2,0.1-0.6,0.1-1,0c-0.4-0.1-0.8-0.3-0.8-0.5l0.9-0.3c0.4-0.5-0.6-1.1,0.1-1.4
								c-0.7-0.2-0.2,0.5,0.4,1c0.5,0.5,1.1,0.9,0.5,0.7c0.3-0.3-0.2-0.4-0.6-0.6c-0.4-0.1-0.7-0.3-0.1-0.4
								c-0.2-0.3-0.6-0.5-0.8-0.8c-0.2-0.3-0.4-0.6,0-1.1c-0.1,0.2,1.4,0.2,1.2-0.3c-0.4-0.9-0.5-0.2-1-0.9c0,0-0.4-0.5-0.4-0.5
								c-0.9,0.1,0.1-0.9-0.9-0.5c0.7-0.2-0.5-1.5,1-1.3l1.2,0.1c-0.1-0.4-1.2-0.7-1.7-1c0.1,0,0.4-0.1,0.5-0.1
								c-1.8-0.2,0.3-0.9-1-1.6c0.7-0.7,0.6-2.1,1.7-2.1c-0.4-0.7-0.7-1.5-0.1-2c0.1,0.2,0.1,0.4,0.4,0.6c0.6-0.2,0.2-0.5,0.1-0.9
								c0.2,0.2,1.3-0.3,2.1-0.4c-0.2-0.7-1.2-1-1.7-1.3c0.9,0.2,0.8-0.3,0.8-0.8c-0.1-0.5-0.1-1,0.7-0.9c0.1,0.3,0.3,1.1,0.9,1
								c1.7,0.5-0.6-1.5,0.5-1.7l-1.3-0.6c1,0.2,0-1.4,1.1-0.5c-0.3-0.5,0.9-0.5-0.3-1.2c1.7-0.3,1.3-2.9,3.8-1.9
								c-0.1-0.3,0.4-0.5-0.2-0.9c-0.8-0.3,0.2,0.7-0.3,0.4c0.1-0.2-0.2-0.4-0.4-0.6c0.5-0.1,0.8-0.3,1.5,0.8
								c1.2-0.1-1.3-2.2-0.2-2.7c0.4,0.4,0.6,0.5,0.8,0.2l-0.4-1.1c0.6-0.4,1.3,0.6,2,1.2c0.1-0.4,0.4-0.7,0-1.3l1.2,0.5
								c-0.9-0.3-0.3-0.6-0.4-0.9l0.1,0.3c0.4,0.2,0.4-0.3,0.5-0.5c-0.5-0.4-1-0.2-1.2-0.1c-0.2-0.4,0-0.6-0.2-1.1
								c0.7,0.7,0.9,0,1.2-0.1c0.4-0.1-0.4-0.8-0.4-0.9c0.4,0.3,0.4-0.3,0.8,0.3c0.1,0.2-0.5-0.1-0.3,0.3c0.4,0.1,1.1,0.7,0.9-0.1
								c-0.2-0.6-1.5-1.2-0.7-1.2c0.1,0.3,0.4,0.5,0.6,0.9l0.8-0.1l-0.7-0.6c0.2,0.1,0.3,0.2,0.4,0.2c-0.6-0.7,0.3-0.9-0.4-1.6
								c0.1-0.3,0.8-0.1,1.1-0.2l0,0.1c0.6,0.1,0.6-0.5,0.2-1.1l0.2,0.1c0.2-0.1,0.3-0.5,0-1c0.8,0,2.9,1.8,2.2,0.7
								c0.2-0.4-1-1.4-1.6-1.6c0.9-0.3,0.1-1.8,1.7-1.8c-0.3-0.3-0.5-0.3-0.6-0.6c0.4-0.4,0.4-1.1,0.6-1.6c0.2-0.6,0.4-1,1.4-1.1
								c0.2,0.5,0.8,0.4,1.3,0.6c-0.6-0.6,0.9,0-0.3-0.6c-0.8-0.3-1.1-0.4-1.5-0.3c-0.1-0.8,0.2-1.7,1-1.8c-0.4,0.1-0.6-0.2-0.8-0.4
								c1.2,0.5,1.5,0,1.2-0.4l-0.7-0.3l0.8,0c-0.2-0.2-1.5-0.6-0.7-0.7c0.3,0.1,0.6,0.1,0.8,0.1c-0.5-0.5-1.5-1.2-0.8-1.4l1.2-0.1
								c-0.1-0.2-0.7-0.5-1.1-0.3c0.8-0.5,0.9-0.9,1.9-1c-2.3-1.3-2.5-2.1-2.5-2.8l0.6-0.2c0.5-0.4-1,0.2-0.7,0
								c0.5-0.1,1.1-0.6,1.8-0.6c0.5-0.6-1.1,0-1.4,0c-0.7,0.3,0.5-0.1-0.4,0.3c-0.3,0.1,0.4-0.6-0.6,0c0.4-0.3,1.1-0.7,1.5-0.9
								c0,0-0.1,0-0.3,0.1c-0.1,0-0.3,0.1-0.3,0.1c0.5-0.4,1.1-0.7,1.7-0.9c0.6-0.2,1.3-0.3,2-0.9l-0.3-0.2c0.9-0.9,1.6,0.1,1.5-0.9
								c-0.7-0.1-2.2,0.8-2.5,1.2c-0.6-0.3-2.4,1.4-2.5,1.1c0.5-0.5,0.3,0.2,1-0.5c0.3-0.4,0.1-0.4-0.1-0.4c-0.2,0.1-0.5,0.2-0.5,0
								c-0.1,0.5-1.1,1.1-1.3,1.2c0.2-0.5,0.9-0.7,0.7-1c-0.5,0.5-1,0.7-1.1,1.2c-0.5,0.5-0.5,0.4-0.4,0.3c0-0.1,0.1-0.3-0.3,0.1
								c0.3-0.5,0.7-0.9,1.1-1.3c0.4-0.4,0.7-0.8,0.7-1.1c-0.6,0.9-1.2,0.9-1.9,2.3c0.1-0.3,0.5-1,0.9-1.5c0.1-0.3-0.2,0-0.5,0.2
								c-0.3,0.2-0.4,0.3,0-0.7l-0.6,0.9c0.1-0.3,0.1-0.6,0.3-1.2c-0.2-0.1-1.2,1-0.6-0.5c-0.1,0.1-0.7-0.1-0.9,1
								c0.1,0.7,0.7-0.6,0.3,0.8c0.3-1.2-0.5,0-0.8,0.3l0.2-0.6c-0.2,0.2-0.4,0-0.7,0.6c0.2-0.3,0.3-0.7,0.3-0.9l-0.4,0.8
								c-0.5,0.3,0.4-1.7-0.1-1.5c0,0,0.5-0.6,0.5-0.6c-0.1,0.1,0-0.8-0.3-0.5c-0.3,0.8-0.7,1.8-0.9,2.4c-0.3,0.3,0.1-1-0.2-0.1
								c0,0,0.1-0.2,0.2-0.5c0.1-0.2,0.2-0.5,0.2-0.5c0.1-0.3,0.1-1.4-0.2-1.5c-0.3,0.2-0.7,1.4-0.5,1.9c-0.1,0-0.2-0.5,0-1.1
								c-0.3,0.3-0.1,0.9-0.4,1.4c0-0.6-0.3-1.4-0.5-2.3c0,0,0.1-0.3,0.2-0.7c0.1-0.3,0.2-0.7,0.2-0.7l-0.2,0
								c0.4-1.1-0.1-0.9,0.1-2.1c-0.2-0.2-0.4,0.2-0.6,0.5c0.3,1,0.1,1.6-0.1,2.3c-0.2,0.7-0.3,1.3-0.2,2.2
								c-0.2,0.3-0.4-0.8-0.5-1.6c-0.2-0.8-0.4-1.3-0.5,0.2c0.2,0.4,0.1,1.8,0.3,1.2c-0.4-0.1,0.1,1.8-0.4,1.1
								c0.1-0.8-0.7-1.7-0.4-2.8c0.1,0.6,0.3,0.4,0.4,0.2c-0.3-0.6-0.2-1.8-0.7-1.7c-0.2,0.2-0.6,0.3-0.3,1.2c0.2,1,0.3-0.2,0.4,0.9
								c-0.4,0.4-0.9-1-0.6,0.8c0.3-0.2,0.6,0.8,0.8,1.4l-0.2,0.5l-0.1-0.7c-0.6-0.3,0.2,1.2-0.3,1.2c0,0-0.2-0.3-0.3-0.6
								c-0.2-0.3-0.3-0.6-0.3-0.6c-0.3-1.1,0.9,0.3,0.2-1.5c-0.4,0-0.2,0.9-0.7,0.6c0-0.2,0.1-0.3,0.1-0.4c-0.1,0-1.2-2.3-1.2-0.7
								c-0.1,0.6,0.2,0.6,0.4,1.3c-0.5,0.4-0.4,1.2-0.7,1.5c-0.5-1.3-0.7,0.2-0.9-1.2c0.6,0.6,1.4,0.1,1.1-1.2
								c-0.9-1.4,0.6,0,0.1-1.6c-0.5,0.2-1.1-1.3-1.6-2.2c-0.2,0-0.2,0.5-0.2,0.7c0.3,0.9,0.5,0.8,1,1.7c-0.7,0-1.1,0.8-0.9,1.8
								c-0.4-0.3-0.8-1.2-0.6-1.4c-0.6,0.6-1.4,1-2.3,1.1c1.3,1.1-0.6,0.8,0.4,1.7c0.6,0.1,1.5,0.9,1.6,1.6
								c-0.3,0.1-0.4-0.6-0.6-0.8c0.2,0.9-1.2-0.9-0.7,0.4c0.4-0.8-0.9-1.7-1.4-2.9c-0.1,0.9-0.4-0.8-0.9-0.5
								c-0.1,0.9-0.4,1.7-0.8,2.3c-1.3-0.5-1.8,1.1-2.4,1.6c-0.7-0.3-1.2-1.7-1.7-1.6c-0.4,0.3,1.1,1.1,0.2,0.9l-0.1-0.3
								c0,0.4-1.7-0.1-0.8,1.8l-0.6-1.4c-0.2,0-0.1,0.3-0.1,0.5c-0.3-0.4-0.6-0.7-0.6-1.1c-0.9-0.7-0.7,0.6-1.2,0.9l0.7,0.6
								c-0.4,1.1-1.4,0.5-2,1.2l-0.4-0.8l-0.2,0.7c-0.3-0.8-0.9-1.1-0.8-0.4c0,0,0.1-0.6,0.1-1.2c0-0.6,0.1-1.3,0.1-1.3
								c0.5,0.3,0.1,1.1,0.7,1.8c0.5,0.6,1.1,0,0.8-0.8c-0.3,0-0.2,0.2-0.3,0.6c-0.6-1.1-0.2-1.2-0.4-2c-0.1,0.1-0.5-0.1-0.3,0.2
								c0-0.7,0.2-0.9,0.6-1.1c0,0.6,0.5,0.6,0.6,0.9c-0.5-1-0.3-1.5,0.4-1.5c1,0.9,0.5-1.3,1.3-1.3c0.4,1.1,0.5,2,0.4,2.6
								c0.7,0.2,0.4-0.3,1.1,0c-0.3-0.8-0.8-2-0.6-2.7l0.5,0.7c0.2-0.6-0.4-1.6,0.2-1.8c1.2-0.3,2.2-0.9,3-1.3l0.5,0.7
								c-0.5-1.7,1-1.4,1.3-2.4c0.7,0,1.2-0.5,1.6-0.8c0.5-0.4,0.9-0.6,1.5-0.2c1.6-1.5,3.4-2.9,5.9-3c0,0,0,0.3-0.1,0.6
								c0,0.3-0.1,0.6-0.1,0.6c0.3-0.9,0.4,0.6,0.7,0.4c-0.6-0.8,0.4-1.3,0.6-2.1c0.6,0.4,1.2,0.4,1.8,0.1c0.6-0.3,1.3-0.6,1.8-1
								l0,0.8c0.6-0.7,1.2-0.7,1.8-0.4c0.6,0.3,1.1,0.8,1.6,1.1c0,0.4,0.1,1.1,0.4,1.2c1-1,1.3-0.8,2.5-1.2c0.7,0.2,1.6,1.1,2,1.9
								c0.2,0,0.4,0,0.6,0c0.2,0,0.4,0.1,0.6,0.1c0.4,0.1,0.8,0.2,1.1,0.4c0.8,0.3,1.4,0.9,2,1.4c1.3,1.1,2.2,2.6,3.5,4l-0.8,0.6
								c0.8,0.5,1.3,1.3,1.7,2.2c0.3,0.8,0.5,1.7,0.5,2.6c0.1,1.7-0.2,3.2,0.2,4.5l-1.6-0.4c-0.6,0.6,0.2,1.7,1.4,1.7
								c-0.6,0.7,0.4,2-1,2.2c-0.5,0.7,0.5,1.1,0.5,1.7c-1,1.3-1.1,1.8-1.3,3.2l0.2-0.3c-0.3-0.3-0.9-0.5-1.1-0.3
								c0.3,0.6-1.1,1.5,0.9,1.8c-0.8,0.4-0.9,1.3-1.1,2.1c-0.2,0.8-0.4,1.6-1.4,1.8c0.5,0.2,0.5,0.5,0.7,0.8c-0.5,1-2.2,1.7-2,3.1
								c-0.3,0-0.6-0.8-0.9-0.4c0,0.4,0.6,0.4,0.6,0.9c-0.4,2.4-3.2,2.6-4.1,4.1c-1.1,3-3.4,4.8-4.8,6.8l-0.3-0.3
								c0.3,0.8-0.2,0.9-0.8,1.1c-0.5,0.2-0.9,0.4-0.2,1.3c-0.4-0.1-0.5,0.5-1.1-0.1c0.5,1.1-1.8,0.9-1,2.3c0.1,0,0-0.1-0.1-0.3
								c-0.6,0.1-0.7,0.5-0.8,0.9c0,0.2-0.1,0.4-0.2,0.5c-0.1,0.2-0.2,0.3-0.5,0.4c-0.1-0.1-0.2-0.3-0.5-0.5c-0.8,0,1.3,1.2-0.6,0.8
								c-0.1,0.2,0.8,0.4,0.8,0.3c-0.3,0.3-0.4,0.7-0.5,1.1c-0.1,0.4,0,0.7,0.1,1.1c0,0.2,0.2,0.3,0.2,0.5c0.1,0.1,0.2,0.2,0.2,0.3
								c0.2,0.1,0.4,0.3,0.5,0.4c-0.2,0.2-0.5,0.4-0.8,0.6c-0.3,0.2-0.6,0.3-0.8,0.4c-0.4,0.2-0.6,0.3,0.2,0.3
								c-0.3,0.2,0.7-0.3,0.3-0.1c0.6-0.1-1.5,1.6-0.5,1.2c0.9-0.8,0.6-0.3,1.2-0.7c-0.1,0.5-0.3,1-0.3,1.3c0,0.3,0.1,0.5,0.7,0.4
								l-0.5,0.4c0.4-0.2,0.8-0.2,1-0.2c0.3,0,0.5,0.1,0.8,0.1c0.5,0.1,0.9,0.2,1.8-0.4c1.9,1.2,4.2,2.2,6.7,3.2
								c1.3,0.5,2.6,1,4,1.7c0.3,0.2,0.7,0.3,1.1,0.5c0.4,0.2,0.7,0.4,1.1,0.6l0.6,0.4c0.2,0.1,0.6,0.4,0.3,0.2l-0.1-0.1
								c0,0,0.1,0,0.1,0l0.2,0.1l0.4,0.3c4.4,3.3,9.4,5.5,13.5,9.4c0.2,2.1,0.3,2.1,1.9,2.3c-0.2,0.2-0.3,0.2-0.3,0.4
								c0.8-1.1,0.9,0.4,1.7-0.5c1.6,1.3,3.4,2.1,5.1,3.2c-0.4-0.1-1.1,0.7-0.7,0.9l0.8-0.5l-0.1,0.3c0.3,0,0.9-0.4,0.9-0.9
								c5.1,1.9,8,7,12.6,9.6c0.7,1.1,2.5,1.7,3.8,2.2c2.4,3.6,4.6,6.8,8.7,8C427.4,224.9,425.1,227.5,423.3,227.2z"/>
							<path fill="#EC2127" d="M338.4,135.4c0.4,0.6,0.9,0.7,1,1.7C339,136.5,338.6,136,338.4,135.4z"/>
							<path fill="#EC2127" d="M352.3,135c-0.1-0.2,0.3,0.1,0.4,0.2c-0.1,0.1,0.1,0.7-0.2,0.4C352.6,135.5,352.4,135.3,352.3,135z"
								/>
							<path fill="#EC2127" d="M355,133.9c0.2,0.5,0,1.2-0.3,1.5L355,133.9z"/>
							<path fill="#EC2127" d="M358.1,135c0.4,0.4,0.4,0.7,0.2,0.7C358.2,135.5,358.2,135.3,358.1,135z"/>
							<path fill="#EC2127" d="M357.7,133.7c0.2-0.1,0.4,0.2,0.6,0.5C358.1,133.7,358,134.7,357.7,133.7z"/>
							<path fill="#EC2127" d="M361.8,134.5c0.1-0.1,0.2-0.6,0.3,0.1C362,134.1,361.7,135.4,361.8,134.5z"/>
							<path fill="#EC2127" d="M363.3,133.8c0,0.1,0,0.2,0.1,0c0,0.3-0.1,0.7-0.2,0.7L363.3,133.8z"/>
							<polygon fill="#EC2127" points="354.6,167.7 354.5,167.2 355,167.6 							"/>
							<path fill="#EC2127" d="M360.3,193.7c0.5-0.1-0.1,0.6-0.1,0.7C359.9,194.2,360.7,193.8,360.3,193.7z"/>
							<polygon fill="#EC2127" points="372.9,197.8 372.8,197.7 373.5,196.8 							"/>
						</g>
					</g>
				</g>
			</g>
		</g>
	</g>
</g>
<g>
	<g>
		<g>
			<path fill="none" stroke="#5E65AE" stroke-width="3" stroke-miterlimit="10" d="M132.5,155.5"/>
		</g>
	</g>
	<defs>
		<filter id="Adobe_OpacityMaskFilter_1_" filterUnits="userSpaceOnUse" x="132.5" y="155.5" width="0" height="0">
			
				<feColorMatrix  type="matrix" values="-1 0 0 0 1  0 -1 0 0 1  0 0 -1 0 1  0 0 0 1 0" color-interpolation-filters="sRGB" result="source"/>
		</filter>
	</defs>
	<mask maskUnits="userSpaceOnUse" x="132.5" y="155.5" width="0" height="0" id="SVGID_2_">
		<g filter="url(#Adobe_OpacityMaskFilter_1_)">
			
				<image overflow="visible" width="17" height="17" xlink:href="6F5F9E607D49A7CA.jpg"  transform="matrix(0.24 0 0 0.24 130.5 153.5)">
			</image>
		</g>
	</mask>
	<g opacity="0.75" mask="url(#SVGID_2_)">
		<g>
			<path fill="none" stroke="#FFFFFF" stroke-width="3" stroke-miterlimit="10" d="M132.5,155.5"/>
		</g>
	</g>
</g>
<g>
	<g>
		<path fill="#3265A6" stroke="#3265A6" stroke-width="2" stroke-miterlimit="10" d="M212.9,168.7V132c0-1.1,0.6-2,1.3-2
			s1.3,0.9,1.3,2v34.7c0,1.1,0.1,2.9,0.3,4c0,0,1,6.9,3.6,10.4c2.6,3.5,5.8,5.2,9.4,5.2c3.6,0,6.8-1.7,9.4-5.2
			c2.6-3.5,3.9-7.6,3.9-12.4V132c0-1.1,0.6-2,1.3-2s1.3,0.9,1.3,2v34.7c0,1.1-0.1,2.9-0.3,4c0,0-1.3,8.7-4.4,12.9s-6.9,6.2-11.3,6.2
			c-4.4,0-8.2-2.1-11.3-6.2C214.5,179.4,212.9,174.4,212.9,168.7z"/>
		<path fill="#3265A6" stroke="#3265A6" stroke-width="2" stroke-miterlimit="10" d="M253.9,189.8c-0.7,0-1.3-0.9-1.3-2V132
			c0-1.1,0.6-2,1.3-2s1.3,0.9,1.3,2v55.8C255.3,188.9,254.7,189.8,253.9,189.8z"/>
		<path fill="#3265A6" stroke="#3265A6" stroke-width="2" stroke-miterlimit="10" d="M285.6,186.3h7.3c1.1,0,2,0.8,2,1.8
			s-0.9,1.8-2,1.8h-5.3c-1.1,0-2.9-0.2-3.9-0.5c0,0-9.6-2.4-14-8.3c-4.5-5.9-6.7-12.9-6.7-21.1c0-8.2,2.2-15.2,6.7-21.1
			c4.5-5.9,9.8-8.8,16-8.8h7.3c1.1,0,2,0.8,2,1.8s-0.9,1.8-2,1.8h-5.3c-1.1,0-2.9,0.2-3.9,0.5c0,0-8.2,2.1-12.2,7.3
			c-3.9,5.2-5.9,11.4-5.9,18.6c0,7.3,2,13.5,5.9,18.6C275.5,183.7,280.2,186.3,285.6,186.3z"/>
		<path fill="#3265A6" stroke="#3265A6" stroke-width="2" stroke-miterlimit="10" d="M300,132c0-1.1,0.6-2,1.3-2s1.3,0.9,1.3,2v24.1
			c0,1.1,0.9,2,2,2h9.3c1.1,0,2.9-0.2,3.9-0.5c0,0,5.1-1.4,7.6-4.8s3.8-7.5,3.8-12.2V132c0-1.1,0.6-2,1.3-2s1.3,0.9,1.3,2v6.5
			c0,1.1-0.1,2.9-0.3,4c0,0-1,7.9-3.2,11.1c-2.2,3.2-4.2,5.3-6.1,6.3c1.9,0.9,3.9,2.9,6.1,6.2c2.2,3.2,3.3,7.6,3.5,13.2v8.5
			c0,1.1-0.6,2-1.3,2s-1.3-0.9-1.3-2v-6.5c0-1.1-0.1-2.9-0.3-4c0,0-1-6.9-3.5-10.3c-2.5-3.4-5.7-5.2-9.6-5.3h-11.3c-1.1,0-2,0.9-2,2
			v24.1c0,1.1-0.6,2-1.3,2s-1.3-0.9-1.3-2V132z"/>
		<path fill="#3265A6" stroke="#3265A6" stroke-width="2" stroke-miterlimit="10" d="M414.4,186.3c1.1,0,2.9-0.2,3.9-0.5
			c0,0,2.8-0.7,4.7-3.2c1.8-2.4,2.7-5.3,2.7-8.6c0-3.3-0.9-6.2-2.7-8.6c-1.8-2.4-4-3.7-6.6-3.7H409c-1.1,0-2.9-0.2-3.9-0.5
			c0,0-4.2-1.1-6.5-4.2c-2.3-3.1-3.5-6.8-3.5-11.1c0-4.3,1.2-8,3.5-11.1c2.3-3.1,5.2-4.7,8.5-4.7h19.3c1.1,0,2,0.8,2,1.8
			s-0.9,1.8-2,1.8H409c-1.1,0-2.9,0.2-3.9,0.5c0,0-2.8,0.7-4.7,3.2c-1.8,2.4-2.7,5.3-2.7,8.6c0,3.3,0.9,6.2,2.7,8.6
			c1.8,2.4,4,3.7,6.6,3.7h7.4c1.1,0,2.9,0.2,3.9,0.5c0,0,4.2,1.1,6.5,4.2c2.3,3.1,3.5,6.8,3.5,11.1c0,4.3-1.2,8-3.5,11.1
			c-2.3,3.1-5.2,4.7-8.5,4.7h-19.3c-1.1,0-2-0.8-2-1.8s0.9-1.8,2-1.8H414.4z"/>
		<path fill="#3265A6" stroke="#3265A6" stroke-width="2" stroke-miterlimit="10" d="M464.2,151.1c0,5.8-1.6,10.8-4.7,14.9
			c-3.1,4.1-6.9,6.2-11.3,6.2h-8.7c-1.1,0-2-0.8-2-1.8s0.9-1.8,2-1.8h6.7c1.1,0,2.9-0.2,3.9-0.5c0,0,4.9-1.2,7.5-4.7
			s3.9-7.6,3.9-12.4c0-4.8-1.3-8.9-3.9-12.4c-2.6-3.5-5.8-5.2-9.4-5.2c-3.6,0-6.8,1.7-9.4,5.2c-2.6,3.5-3.9,7.6-3.9,12.4v36.7
			c0,1.1-0.6,2-1.3,2s-1.3-0.9-1.3-2v-34.7c0-1.1,0.1-2.9,0.3-4c0,0,1.3-8.7,4.4-12.9c3.1-4.1,6.9-6.2,11.3-6.2
			c4.4,0,8.2,2.1,11.3,6.2C462.6,140.4,464.2,145.3,464.2,151.1z"/>
		<path fill="#3265A6" stroke="#3265A6" stroke-width="2" stroke-miterlimit="10" d="M469.2,153.1c0-1.1,0.1-2.9,0.3-4
			c0,0,1.3-8.7,4.4-12.9s6.9-6.2,11.3-6.2c4.4,0,8.1,2.1,11.3,6.2c3.1,4.1,4.7,9.1,4.7,14.9v36.7c0,1.1-0.6,2-1.3,2s-1.3-0.9-1.3-2
			v-20.6c0-1.1-0.9-2-2-2h-20c-1.1,0-2-0.8-2-1.8s0.9-1.8,2-1.8h20c1.1,0,2-0.9,2-2v-6.5c0-1.1-0.1-2.9-0.3-4c0,0-1-6.9-3.7-10.4
			c-2.6-3.5-5.8-5.2-9.4-5.2c-3.7,0-6.8,1.7-9.4,5.2c-2.6,3.5-3.9,7.6-3.9,12.4v36.7c0,1.1-0.6,2-1.3,2s-1.3-0.9-1.3-2V153.1z"/>
		<path fill="#3265A6" stroke="#3265A6" stroke-width="2" stroke-miterlimit="10" d="M528.9,186.3h7.3c1.1,0,2,0.8,2,1.8
			s-0.9,1.8-2,1.8h-5.3c-1.1,0-2.9-0.2-3.9-0.5c0,0-9.6-2.4-14-8.3c-4.5-5.9-6.7-12.9-6.7-21.1c0-8.2,2.2-15.2,6.7-21.1
			c4.5-5.9,9.8-8.8,16-8.8h7.3c1.1,0,2,0.8,2,1.8s-0.9,1.8-2,1.8h-5.3c-1.1,0-2.9,0.2-3.9,0.5c0,0-8.2,2.1-12.2,7.3
			c-3.9,5.2-5.9,11.4-5.9,18.6c0,7.3,2,13.5,5.9,18.6C518.7,183.7,523.4,186.3,528.9,186.3z"/>
		<path fill="#3265A6" stroke="#3265A6" stroke-width="2" stroke-miterlimit="10" d="M543.3,159.9c0-8.2,2.2-15.2,6.7-21.1
			c4.4-5.9,9.8-8.8,16-8.8h7.3c1.1,0,2,0.8,2,1.8s-0.9,1.8-2,1.8H568c-1.1,0-2.9,0.2-3.9,0.5c0,0-8.3,2.1-12.2,7.3
			c-3.9,5.2-5.9,10.8-5.9,16.8h27.4c1.1,0,2,0.8,2,1.8s-0.9,1.8-2,1.8H548c-1.1,0-1.9,0.9-1.7,2c0,0,1.6,9.7,5.5,14.9
			c3.9,5.2,8.6,7.7,14.1,7.7h7.3c1.1,0,2,0.8,2,1.8s-0.9,1.8-2,1.8H568c-1.1,0-2.9-0.2-3.9-0.5c0,0-9.6-2.4-14.1-8.3
			C545.5,175.1,543.3,168.1,543.3,159.9z"/>
	</g>
</g>
<g>
	<defs>
		<filter id="Adobe_OpacityMaskFilter_2_" filterUnits="userSpaceOnUse" x="95.7" y="67" width="119.3" height="141.1">
			<feFlood  style="flood-color:white;flood-opacity:1" result="back"/>
			<feBlend  in="SourceGraphic" in2="back" mode="normal"/>
		</filter>
	</defs>
	<mask maskUnits="userSpaceOnUse" x="95.7" y="67" width="119.3" height="141.1" id="SVGID_3_">
		<g filter="url(#Adobe_OpacityMaskFilter_2_)">
			
				<image overflow="visible" width="514" height="605" xlink:href="6F5F9E607D49A7D5.jpg"  transform="matrix(0.24 0 0 0.24 93.6507 65.0269)">
			</image>
		</g>
	</mask>
	<g mask="url(#SVGID_3_)">
		<g opacity="0.5">
			
				<image overflow="visible" width="497" height="588" xlink:href="6F5F9E607D49A7D7.png"  transform="matrix(0.24 0 0 0.24 95.6507 67.0269)">
			</image>
		</g>
		<g>
			<path fill="#EC2127" d="M167.4,192.9c0,0-0.2-0.1-0.6-0.2c-0.2-0.1-0.4-0.2-0.7-0.3c-0.3-0.1-0.6-0.2-1-0.6
				c0-0.1-0.1-0.1-0.2-0.2c0,0,0-0.2,0-0.3c0-0.1,0.1-0.2,0.2-0.2c0.2-0.1,0.3-0.1,0.5-0.2c0.3,0,0.5-0.1,0.8-0.1c0.5,0,1.1,0,1.7,0
				c1.2,0.1,2.6,0.2,4.1,0.3c3,0.3,6.7,0.6,10.9,0.8c2.1,0.1,4.3,0.2,6.6,0.1c2.2-0.1,4.7-0.3,6.6-1c0.9-0.3,1.5-0.9,1.5-1
				c0-0.1,0-0.1-0.1-0.3c0-0.2-0.1-0.6-0.3-1c-0.4-0.9-1-1.9-1.8-2.9c-0.4-0.5-0.8-1-1.2-1.5c-0.5-0.5-0.9-1-1.4-1.6
				c-1-1.1-2-2.3-3.1-3.3c-1-1.1-2.1-2.1-3.1-3.2c-1.1-1.1-2.2-2.1-3.3-3.2c-1.1-1.1-2.3-2.1-3.5-3.2c-2.4-2.1-4.9-4.2-7.4-6.3
				c-2.6-2.1-5.2-4.2-7.9-6.3c-2.7-2.1-5.4-4.3-8.1-6.5c-2.7-2.2-5.4-4.5-8-6.9c-5.3-4.7-10.4-9.8-15-15l-1.6-1.7l-1.8-1.8
				c-1.2-1.2-2.4-2.5-3.5-3.7c-2.3-2.5-4.6-5-6.7-7.5c-4.3-5.1-8.3-10.2-11.6-15.5c-1.6-2.7-3.1-5.4-4.2-8.4c-0.5-1.5-1-3.1-1.2-4.7
				c-0.2-1.7-0.2-3.5,0.5-5.4c0.7-1.9,2.1-3.4,3.6-4.3c1.5-0.9,3-1.3,4.3-1.5c2.7-0.4,5.1-0.3,7.4,0c4.4,0.6,8,1.7,11,2.6
				c2.9,0.9,5.2,1.9,6.7,2.6c0.8,0.3,1.3,0.6,1.7,0.8c0.4,0.2,0.6,0.3,0.6,0.3c0,0-0.2-0.1-0.6-0.2c-0.4-0.1-1-0.2-1.8-0.4
				c-1.6-0.3-4-0.7-6.9-1.2c-3-0.4-6.7-0.8-10.7-0.7c-2,0.1-4.2,0.3-6.1,0.9c-0.9,0.3-1.8,0.7-2.4,1.2c-0.6,0.5-0.9,1-1,1.7
				c-0.3,1.3,0.3,3.5,1.4,5.7c1.1,2.2,2.6,4.5,4.3,6.8c3.4,4.6,7.5,9.2,11.9,13.8c2.2,2.3,4.5,4.6,6.9,6.9c1.2,1.2,2.4,2.3,3.6,3.5
				l1.8,1.8l1.9,2c2.3,2.4,4.7,4.8,7.1,7.2c1.2,1.2,2.5,2.3,3.7,3.5l3.8,3.4c5,4.6,10.3,9,15.6,13.4c5.2,4.4,10.4,8.9,15.1,13.7
				c1.2,1.2,2.3,2.4,3.5,3.6c1.1,1.2,2.2,2.4,3.3,3.6c1,1.3,2.1,2.5,3.1,3.7c1,1.2,1.9,2.4,2.8,3.6c0.5,0.6,0.9,1.3,1.4,1.9
				c0.5,0.7,0.9,1.3,1.4,2c0.9,1.4,1.7,2.9,2.2,4.7c0.3,0.9,0.5,1.9,0.5,3.1c0,1.2-0.4,2.5-1.1,3.6c-0.7,1.1-1.7,1.8-2.6,2.3
				c-0.9,0.5-1.7,0.7-2.5,0.9c-1.6,0.4-3,0.4-4.4,0.4c-1.4,0-2.7-0.1-3.9-0.2c-2.5-0.3-4.8-0.6-6.9-1.1c-4.2-0.9-7.8-1.9-10.8-2.7
				c-1.5-0.4-2.8-0.8-3.9-1.1c-0.6-0.1-1.1-0.3-1.6-0.4c-0.2,0-0.5-0.1-0.7-0.1c-0.1,0-0.2,0-0.2,0c0,0,0.1-0.2,0.1-0.2c0,0,0,0,0,0
				c0.5,0.5,1.1,0.9,1.4,1.1C167.2,192.7,167.4,192.9,167.4,192.9z"/>
		</g>
	</g>
</g>
</svg>
